<svg width="630" height="629" viewBox="0 0 630 629" fill="none" xmlns="http://www.w3.org/2000/svg">
<path d="M0 0H630V628.504H0V0Z" fill="#C4C4C4"/>
<path d="M197.276 302.18C196.876 300.5 196.176 299.24 195.176 298.4C194.216 297.56 192.816 297.14 190.976 297.14C188.216 297.14 186.176 298.26 184.856 300.5C183.576 302.7 182.916 306.3 182.876 311.3C183.836 309.7 185.236 308.46 187.076 307.58C188.916 306.66 190.916 306.2 193.076 306.2C195.676 306.2 197.976 306.76 199.976 307.88C201.976 309 203.536 310.64 204.656 312.8C205.776 314.92 206.336 317.48 206.336 320.48C206.336 323.32 205.756 325.86 204.596 328.1C203.476 330.3 201.816 332.02 199.616 333.26C197.416 334.5 194.796 335.12 191.756 335.12C187.596 335.12 184.316 334.2 181.916 332.36C179.556 330.52 177.896 327.96 176.936 324.68C176.016 321.36 175.556 317.28 175.556 312.44C175.556 305.12 176.816 299.6 179.336 295.88C181.856 292.12 185.836 290.24 191.276 290.24C195.476 290.24 198.736 291.38 201.056 293.66C203.376 295.94 204.716 298.78 205.076 302.18H197.276ZM191.156 313.1C189.036 313.1 187.256 313.72 185.816 314.96C184.376 316.2 183.656 318 183.656 320.36C183.656 322.72 184.316 324.58 185.636 325.94C186.996 327.3 188.896 327.98 191.336 327.98C193.496 327.98 195.196 327.32 196.436 326C197.716 324.68 198.356 322.9 198.356 320.66C198.356 318.34 197.736 316.5 196.496 315.14C195.296 313.78 193.516 313.1 191.156 313.1ZM213.095 302.78C213.295 298.78 214.695 295.7 217.295 293.54C219.935 291.34 223.395 290.24 227.675 290.24C230.595 290.24 233.095 290.76 235.175 291.8C237.255 292.8 238.815 294.18 239.855 295.94C240.935 297.66 241.475 299.62 241.475 301.82C241.475 304.34 240.815 306.48 239.495 308.24C238.215 309.96 236.675 311.12 234.875 311.72V311.96C237.195 312.68 238.995 313.96 240.275 315.8C241.595 317.64 242.255 320 242.255 322.88C242.255 325.28 241.695 327.42 240.575 329.3C239.495 331.18 237.875 332.66 235.715 333.74C233.595 334.78 231.035 335.3 228.035 335.3C223.515 335.3 219.835 334.16 216.995 331.88C214.155 329.6 212.655 326.24 212.495 321.8H220.655C220.735 323.76 221.395 325.34 222.635 326.54C223.915 327.7 225.655 328.28 227.855 328.28C229.895 328.28 231.455 327.72 232.535 326.6C233.655 325.44 234.215 323.96 234.215 322.16C234.215 319.76 233.455 318.04 231.935 317C230.415 315.96 228.055 315.44 224.855 315.44H223.115V308.54H224.855C230.535 308.54 233.375 306.64 233.375 302.84C233.375 301.12 232.855 299.78 231.815 298.82C230.815 297.86 229.355 297.38 227.435 297.38C225.555 297.38 224.095 297.9 223.055 298.94C222.055 299.94 221.475 301.22 221.315 302.78H213.095ZM248.893 312.56C248.893 305.64 250.133 300.22 252.613 296.3C255.133 292.38 259.293 290.42 265.093 290.42C270.893 290.42 275.033 292.38 277.513 296.3C280.033 300.22 281.293 305.64 281.293 312.56C281.293 319.52 280.033 324.98 277.513 328.94C275.033 332.9 270.893 334.88 265.093 334.88C259.293 334.88 255.133 332.9 252.613 328.94C250.133 324.98 248.893 319.52 248.893 312.56ZM273.013 312.56C273.013 309.6 272.813 307.12 272.413 305.12C272.053 303.08 271.293 301.42 270.133 300.14C269.013 298.86 267.333 298.22 265.093 298.22C262.853 298.22 261.153 298.86 259.993 300.14C258.873 301.42 258.113 303.08 257.713 305.12C257.353 307.12 257.173 309.6 257.173 312.56C257.173 315.6 257.353 318.16 257.713 320.24C258.073 322.28 258.833 323.94 259.993 325.22C261.153 326.46 262.853 327.08 265.093 327.08C267.333 327.08 269.033 326.46 270.193 325.22C271.353 323.94 272.113 322.28 272.473 320.24C272.833 318.16 273.013 315.6 273.013 312.56ZM321.299 335L314.459 324.68L308.399 335H299.399L310.259 318.32L299.279 301.76H308.759L315.539 312.02L321.659 301.76H330.659L319.739 318.32L330.779 335H321.299ZM371.358 302.18C370.958 300.5 370.258 299.24 369.258 298.4C368.298 297.56 366.898 297.14 365.058 297.14C362.298 297.14 360.258 298.26 358.938 300.5C357.658 302.7 356.998 306.3 356.958 311.3C357.918 309.7 359.318 308.46 361.158 307.58C362.998 306.66 364.998 306.2 367.158 306.2C369.758 306.2 372.058 306.76 374.058 307.88C376.058 309 377.618 310.64 378.738 312.8C379.858 314.92 380.418 317.48 380.418 320.48C380.418 323.32 379.838 325.86 378.678 328.1C377.558 330.3 375.898 332.02 373.698 333.26C371.498 334.5 368.878 335.12 365.838 335.12C361.678 335.12 358.398 334.2 355.998 332.36C353.638 330.52 351.978 327.96 351.018 324.68C350.098 321.36 349.638 317.28 349.638 312.44C349.638 305.12 350.898 299.6 353.418 295.88C355.938 292.12 359.918 290.24 365.358 290.24C369.558 290.24 372.818 291.38 375.138 293.66C377.458 295.94 378.798 298.78 379.158 302.18H371.358ZM365.238 313.1C363.118 313.1 361.338 313.72 359.898 314.96C358.458 316.2 357.738 318 357.738 320.36C357.738 322.72 358.398 324.58 359.718 325.94C361.078 327.3 362.978 327.98 365.418 327.98C367.578 327.98 369.278 327.32 370.518 326C371.798 324.68 372.438 322.9 372.438 320.66C372.438 318.34 371.818 316.5 370.578 315.14C369.378 313.78 367.598 313.1 365.238 313.1ZM387.177 302.78C387.377 298.78 388.777 295.7 391.377 293.54C394.017 291.34 397.477 290.24 401.757 290.24C404.677 290.24 407.177 290.76 409.257 291.8C411.337 292.8 412.897 294.18 413.937 295.94C415.017 297.66 415.557 299.62 415.557 301.82C415.557 304.34 414.897 306.48 413.577 308.24C412.297 309.96 410.757 311.12 408.957 311.72V311.96C411.277 312.68 413.077 313.96 414.357 315.8C415.677 317.64 416.337 320 416.337 322.88C416.337 325.28 415.777 327.42 414.657 329.3C413.577 331.18 411.957 332.66 409.797 333.74C407.677 334.78 405.117 335.3 402.117 335.3C397.597 335.3 393.917 334.16 391.077 331.88C388.237 329.6 386.737 326.24 386.577 321.8H394.737C394.817 323.76 395.477 325.34 396.717 326.54C397.997 327.7 399.737 328.28 401.937 328.28C403.977 328.28 405.537 327.72 406.617 326.6C407.737 325.44 408.297 323.96 408.297 322.16C408.297 319.76 407.537 318.04 406.017 317C404.497 315.96 402.137 315.44 398.937 315.44H397.197V308.54H398.937C404.617 308.54 407.457 306.64 407.457 302.84C407.457 301.12 406.937 299.78 405.897 298.82C404.897 297.86 403.437 297.38 401.517 297.38C399.637 297.38 398.177 297.9 397.137 298.94C396.137 299.94 395.557 301.22 395.397 302.78H387.177ZM422.975 312.56C422.975 305.64 424.215 300.22 426.695 296.3C429.215 292.38 433.375 290.42 439.175 290.42C444.975 290.42 449.115 292.38 451.595 296.3C454.115 300.22 455.375 305.64 455.375 312.56C455.375 319.52 454.115 324.98 451.595 328.94C449.115 332.9 444.975 334.88 439.175 334.88C433.375 334.88 429.215 332.9 426.695 328.94C424.215 324.98 422.975 319.52 422.975 312.56ZM447.095 312.56C447.095 309.6 446.895 307.12 446.495 305.12C446.135 303.08 445.375 301.42 444.215 300.14C443.095 298.86 441.415 298.22 439.175 298.22C436.935 298.22 435.235 298.86 434.075 300.14C432.955 301.42 432.195 303.08 431.795 305.12C431.435 307.12 431.255 309.6 431.255 312.56C431.255 315.6 431.435 318.16 431.795 320.24C432.155 322.28 432.915 323.94 434.075 325.22C435.235 326.46 436.935 327.08 439.175 327.08C441.415 327.08 443.115 326.46 444.275 325.22C445.435 323.94 446.195 322.28 446.555 320.24C446.915 318.16 447.095 315.6 447.095 312.56Z" fill="black" fill-opacity="0.3"/>
</svg>
