<svg width="37" height="30" viewBox="0 0 37 30" fill="none" xmlns="http://www.w3.org/2000/svg">
<g filter="url(#filter0_d_35_639)">
<path d="M20.5582 22.05C19.1782 22.05 17.7982 20.64 17.7982 19.35C17.7982 17.94 19.9882 16.02 21.2782 14.85H8.88816C6.60816 14.85 5.85816 14.52 5.31816 13.68C5.04816 13.29 4.89816 12.72 4.89816 12C4.89816 10.56 5.46816 9.81 6.42816 9.42C6.90816 9.24 7.74816 9.15 8.88816 9.15H21.2782L19.8082 7.74C18.9982 6.96 18.4582 6.36 18.1882 5.91C17.9182 5.46 17.7982 5.04 17.7982 4.65C17.7982 3.39 19.1482 1.95 20.5582 1.95C21.3682 1.95 22.2382 2.4 23.4682 3.6L32.1082 12L23.6482 20.22C22.2082 21.6 21.3982 22.05 20.5582 22.05Z" fill="#5E5E5E"/>
</g>
<defs>
<filter id="filter0_d_35_639" x="0.897949" y="0.949997" width="35.2104" height="28.1" filterUnits="userSpaceOnUse" color-interpolation-filters="sRGB">
<feFlood flood-opacity="0" result="BackgroundImageFix"/>
<feColorMatrix in="SourceAlpha" type="matrix" values="0 0 0 0 0 0 0 0 0 0 0 0 0 0 0 0 0 0 127 0" result="hardAlpha"/>
<feOffset dy="3"/>
<feGaussianBlur stdDeviation="2"/>
<feComposite in2="hardAlpha" operator="out"/>
<feColorMatrix type="matrix" values="0 0 0 0 0 0 0 0 0 0 0 0 0 0 0 0 0 0 0.2 0"/>
<feBlend mode="normal" in2="BackgroundImageFix" result="effect1_dropShadow_35_639"/>
<feBlend mode="normal" in="SourceGraphic" in2="effect1_dropShadow_35_639" result="shape"/>
</filter>
</defs>
</svg>
